<svg width="88" height="88" viewBox="0 0 88 88" fill="none" xmlns="http://www.w3.org/2000/svg">
<path d="M14.6666 11C10.5966 11 7.33331 14.2633 7.33331 18.3333V55C7.33331 56.9449 8.10593 58.8102 9.4812 60.1855C10.8565 61.5607 12.7217 62.3333 14.6666 62.3333H44V80.6667L55 69.6667L66 80.6667V62.3333H73.3333C75.2782 62.3333 77.1435 61.5607 78.5188 60.1855C79.894 58.8102 80.6666 56.9449 80.6666 55V18.3333C80.6666 16.3884 79.894 14.5232 78.5188 13.1479C77.1435 11.7726 75.2782 11 73.3333 11H14.6666ZM44 18.3333L55 25.6667L66 18.3333V31.1667L77 36.6667L66 42.1667V55L55 47.6667L44 55V42.1667L33 36.6667L44 31.1667V18.3333ZM14.6666 18.3333H33V25.6667H14.6666V18.3333ZM14.6666 33H25.6666V40.3333H14.6666V33ZM14.6666 47.6667H33V55H14.6666V47.6667Z" fill="url(#paint0_linear_3106_2468)"/>
<defs>
<linearGradient id="paint0_linear_3106_2468" x1="7.33331" y1="45.8333" x2="80.6666" y2="45.8333" gradientUnits="userSpaceOnUse">
<stop stop-color="#1A2856"/>
<stop offset="1" stop-color="#334EA9"/>
</linearGradient>
</defs>
</svg>
